<?xml version="1.0" standalone="no"?>
<!DOCTYPE svg PUBLIC "-//W3C//DTD SVG 20010904//EN"
 "http://www.w3.org/TR/2001/REC-SVG-20010904/DTD/svg10.dtd">
<svg version="1.0" xmlns="http://www.w3.org/2000/svg"
 width="2687.000000pt" height="711.000000pt" viewBox="0 0 2687.000000 711.000000"
 preserveAspectRatio="xMidYMid meet">

<g transform="translate(0.000000,711.000000) scale(0.100000,-0.100000)"
fill="#000000" stroke="none">
<path d="M9975 2649 c21 -59 19 -174 -4 -240 -11 -30 -94 -214 -186 -409 -92
-195 -174 -370 -181 -387 l-14 -33 129 0 129 0 38 90 37 90 211 0 211 0 36
-88 35 -87 132 -3 c73 -1 132 1 132 6 0 5 -107 254 -238 553 l-239 544 -121 3
-121 3 14 -42z m226 -540 c27 -66 49 -124 49 -129 0 -6 -48 -10 -115 -10 -63
0 -115 3 -115 7 0 5 26 69 58 145 39 94 60 132 65 122 5 -8 31 -69 58 -135z"/>
<path d="M11130 2674 c-99 -21 -222 -86 -288 -153 -104 -103 -156 -234 -156
-391 0 -160 52 -289 160 -395 110 -109 255 -165 429 -165 229 0 416 102 500
274 19 39 38 90 41 114 l7 42 -129 0 -129 0 -27 -59 c-48 -103 -155 -158 -287
-149 -223 17 -359 226 -292 448 19 62 31 82 79 130 70 69 134 95 237 94 137
-1 240 -86 276 -227 l11 -47 129 0 c148 0 142 -6 114 104 -36 139 -132 264
-252 329 -114 61 -282 82 -423 51z"/>
<path d="M13911 2675 c-264 -60 -441 -277 -441 -540 0 -165 51 -288 164 -400
115 -114 245 -165 422 -165 279 0 495 153 570 405 12 39 18 93 18 155 0 251
-141 447 -379 526 -100 33 -256 42 -354 19z m295 -239 c66 -30 120 -85 153
-155 22 -48 26 -69 25 -146 -1 -98 -16 -153 -61 -218 -82 -119 -277 -162 -417
-93 -113 55 -176 165 -176 306 0 215 144 351 355 335 42 -3 90 -15 121 -29z"/>
<path d="M16365 2675 c-169 -37 -306 -143 -377 -291 -131 -278 -22 -616 243
-750 166 -83 376 -87 547 -9 102 47 201 167 231 283 10 35 16 42 36 42 25 0
25 1 25 90 l0 90 -267 -2 -268 -3 -3 -87 -3 -88 126 0 126 0 -15 -29 c-19 -36
-79 -89 -125 -109 -24 -11 -66 -16 -126 -16 -75 0 -98 4 -140 24 -65 32 -121
89 -153 159 -23 48 -27 69 -27 152 0 90 2 100 35 165 58 114 154 170 286 167
113 -2 216 -73 249 -174 l17 -49 125 0 126 0 -7 48 c-3 26 -22 80 -41 121
-100 210 -361 323 -620 266z"/>
<path d="M23743 2679 c-112 -22 -198 -83 -242 -171 -26 -51 -31 -73 -31 -133
0 -180 77 -259 345 -349 132 -45 157 -58 184 -92 90 -114 -133 -198 -271 -102
-14 10 -36 38 -48 63 l-22 45 -125 0 -125 0 6 -32 c12 -59 64 -157 110 -206
83 -88 196 -132 341 -132 143 0 259 43 334 125 59 64 75 105 74 195 0 92 -25
151 -88 209 -55 51 -114 80 -259 130 -130 45 -152 55 -183 84 -30 27 -31 89
-4 116 27 27 95 44 143 36 47 -8 113 -62 122 -100 6 -25 7 -25 131 -25 98 0
125 3 125 13 0 26 -38 124 -63 163 -84 134 -269 200 -454 163z"/>
<path d="M8832 2128 l3 -543 368 -3 367 -2 0 110 0 110 -240 0 -240 0 0 435 0
435 -130 0 -130 0 2 -542z"/>
<path d="M12320 2125 l0 -545 125 0 125 0 0 215 0 215 240 0 240 0 2 -212 3
-213 125 0 125 0 3 543 2 542 -130 0 -130 0 0 -220 0 -220 -240 0 -240 0 0
220 0 220 -125 0 -125 0 0 -545z"/>
<path d="M14810 2125 l0 -546 113 3 112 3 5 358 5 359 200 -217 c110 -119 212
-238 228 -263 33 -57 67 -162 67 -208 l0 -34 115 0 115 0 0 545 0 545 -115 0
-115 0 0 -305 0 -306 -275 306 -276 305 -89 0 -90 0 0 -545z"/>
<path d="M17552 2303 c3 -360 4 -369 27 -428 79 -199 236 -305 451 -305 238 0
418 142 466 369 10 49 14 152 14 399 l0 332 -130 0 -129 0 -3 -357 c-3 -344
-4 -360 -25 -398 -41 -78 -105 -115 -195 -115 -97 1 -180 61 -207 149 -7 26
-11 153 -11 380 l0 341 -131 0 -130 0 3 -367z"/>
<path d="M18720 2125 l0 -545 110 0 110 0 0 361 c0 198 4 359 9 357 16 -6 408
-435 430 -471 28 -46 57 -131 66 -195 l7 -53 111 3 112 3 3 543 2 542 -115 0
-115 0 -2 -305 -3 -305 -274 305 -273 305 -89 0 -89 0 0 -545z"/>
<path d="M19860 2565 l0 -105 70 0 70 0 0 -335 0 -335 -70 0 -70 0 0 -105 0
-105 268 2 267 3 3 103 3 102 -76 0 -75 0 0 335 0 334 73 3 72 3 3 103 3 102
-271 0 -270 0 0 -105z"/>
<path d="M20460 2660 c0 -7 345 -935 395 -1063 7 -16 21 -17 143 -15 l135 3
198 523 c109 288 201 532 204 543 6 18 0 19 -122 19 l-128 0 -83 -242 c-46
-134 -89 -250 -95 -258 -51 -67 -165 -66 -209 2 -8 13 -50 130 -92 261 l-77
237 -134 0 c-82 0 -135 -4 -135 -10z"/>
<path d="M21640 2125 l0 -545 333 2 332 3 0 100 0 100 -207 3 -208 2 0 115 0
115 210 0 210 0 0 105 0 105 -210 0 -210 0 0 120 0 120 195 0 195 0 0 100 0
100 -320 0 -320 0 0 -545z"/>
<path d="M22500 2125 l0 -545 125 0 125 0 0 181 0 181 140 -181 140 -181 150
0 150 0 0 95 0 95 -83 0 -84 0 -88 95 c-48 53 -86 97 -84 98 2 2 30 11 63 22
114 37 211 131 237 229 18 66 6 183 -23 241 -32 61 -94 124 -157 159 -89 48
-146 56 -388 56 l-223 0 0 -545z m455 319 c69 -32 103 -106 84 -179 -22 -84
-91 -124 -211 -125 l-78 0 0 166 0 167 85 -6 c47 -3 101 -14 120 -23z"/>
<path d="M24400 2565 l0 -105 70 0 70 0 0 -335 0 -335 -70 0 -70 0 0 -105 0
-105 270 0 270 0 0 105 0 105 -70 0 -70 0 0 335 0 334 68 3 67 3 3 103 3 102
-271 0 -270 0 0 -105z"/>
<path d="M25030 2565 l0 -105 135 0 135 0 2 -437 3 -438 133 -3 132 -3 0 441
0 440 145 0 145 0 0 103 0 102 195 -343 195 -342 0 -200 0 -201 123 3 122 3 5
210 5 210 178 327 c97 180 177 330 177 333 0 3 -56 5 -125 5 l-125 0 -121
-241 -120 -241 -117 241 -116 241 -553 0 -553 0 0 -105z"/>
</g>
</svg>
